<?xml version="1.0" encoding="UTF-8" standalone="no"?>
<!DOCTYPE svg PUBLIC "-//W3C//DTD SVG 1.1//EN"
 "http://www.w3.org/Graphics/SVG/1.1/DTD/svg11.dtd">
<!-- Generated by graphviz version 2.43.0 (0)
 -->
<!-- Title: %3 Pages: 1 -->
<svg width="1877pt" height="332pt"
 viewBox="0.00 0.00 1877.33 332.00" xmlns="http://www.w3.org/2000/svg" xmlns:xlink="http://www.w3.org/1999/xlink">
<g id="graph0" class="graph" transform="scale(1 1) rotate(0) translate(4 328)">
<title>%3</title>
<polygon fill="white" stroke="transparent" points="-4,4 -4,-328 1873.33,-328 1873.33,4 -4,4"/>
<!-- exe:./core/gen/dune:0 -->
<g id="node1" class="node">
<title>exe:./core/gen/dune:0</title>
<polygon fill="none" stroke="black" points="104.78,-324 0.22,-306 104.78,-288 209.35,-306 104.78,-324"/>
<text text-anchor="middle" x="104.78" y="-302.3" font-family="Times,serif" font-size="14.00">gen_traversal</text>
</g>
<!-- lib:cmdliner -->
<g id="node5" class="node">
<title>lib:cmdliner</title>
<ellipse fill="lightgrey" stroke="black" cx="104.78" cy="-234" rx="51.99" ry="18"/>
<text text-anchor="middle" x="104.78" y="-230.3" font-family="Times,serif" font-size="14.00">cmdliner</text>
</g>
<!-- exe:./core/gen/dune:0&#45;&gt;lib:cmdliner -->
<g id="edge2" class="edge">
<title>exe:./core/gen/dune:0&#45;&gt;lib:cmdliner</title>
<path fill="none" stroke="black" d="M104.78,-287.7C104.78,-279.98 104.78,-270.71 104.78,-262.11"/>
<polygon fill="black" stroke="black" points="108.28,-262.1 104.78,-252.1 101.28,-262.1 108.28,-262.1"/>
</g>
<!-- lib:ppxlib.ast -->
<g id="node22" class="node">
<title>lib:ppxlib.ast</title>
<ellipse fill="lightgrey" stroke="black" cx="303.78" cy="-234" rx="56.59" ry="18"/>
<text text-anchor="middle" x="303.78" y="-230.3" font-family="Times,serif" font-size="14.00">ppxlib.ast</text>
</g>
<!-- exe:./core/gen/dune:0&#45;&gt;lib:ppxlib.ast -->
<g id="edge1" class="edge">
<title>exe:./core/gen/dune:0&#45;&gt;lib:ppxlib.ast</title>
<path fill="none" stroke="black" d="M137.64,-293.44C170.38,-281.93 220.92,-264.15 257.66,-251.22"/>
<polygon fill="black" stroke="black" points="258.89,-254.5 267.16,-247.88 256.56,-247.9 258.89,-254.5"/>
</g>
<!-- exe:./melstd/gen/dune:0 -->
<g id="node2" class="node">
<title>exe:./melstd/gen/dune:0</title>
<polygon fill="none" stroke="black" points="339.78,-324 227.51,-306 339.78,-288 452.06,-306 339.78,-324"/>
<text text-anchor="middle" x="339.78" y="-302.3" font-family="Times,serif" font-size="14.00">build_reserved</text>
</g>
<!-- exe:./melstd/gen/dune:0&#45;&gt;lib:ppxlib.ast -->
<g id="edge3" class="edge">
<title>exe:./melstd/gen/dune:0&#45;&gt;lib:ppxlib.ast</title>
<path fill="none" stroke="black" d="M331.61,-289.12C327.32,-280.77 321.95,-270.32 317.07,-260.84"/>
<polygon fill="black" stroke="black" points="320.11,-259.09 312.42,-251.8 313.88,-262.29 320.11,-259.09"/>
</g>
<!-- exe:./runtime/gen/dune:0 -->
<g id="node3" class="node">
<title>exe:./runtime/gen/dune:0</title>
<polygon fill="none" stroke="black" points="786.78,-324 646.86,-306 786.78,-288 926.71,-306 786.78,-324"/>
<text text-anchor="middle" x="786.78" y="-302.3" font-family="Times,serif" font-size="14.00">gen_caml_oo_curry</text>
</g>
<!-- exe:./runtime/gen/dune:1 -->
<g id="node4" class="node">
<title>exe:./runtime/gen/dune:1</title>
<polygon fill="none" stroke="black" points="1025.78,-324 945.01,-306 1025.78,-288 1106.56,-306 1025.78,-324"/>
<text text-anchor="middle" x="1025.78" y="-302.3" font-family="Times,serif" font-size="14.00">gen_curry</text>
</g>
<!-- lib:dune&#45;build&#45;info -->
<g id="node6" class="node">
<title>lib:dune&#45;build&#45;info</title>
<ellipse fill="lightgrey" stroke="black" cx="458.78" cy="-234" rx="80.69" ry="18"/>
<text text-anchor="middle" x="458.78" y="-230.3" font-family="Times,serif" font-size="14.00">dune&#45;build&#45;info</text>
</g>
<!-- lib:js_parser -->
<g id="node7" class="node">
<title>lib:js_parser</title>
<ellipse fill="lightgrey" stroke="black" cx="648.78" cy="-162" rx="53.09" ry="18"/>
<text text-anchor="middle" x="648.78" y="-158.3" font-family="Times,serif" font-size="14.00">js_parser</text>
</g>
<!-- lib:melange -->
<g id="node8" class="node">
<title>lib:melange</title>
<ellipse fill="none" stroke="black" cx="1468.78" cy="-162" rx="50.09" ry="18"/>
<text text-anchor="middle" x="1468.78" y="-158.3" font-family="Times,serif" font-size="14.00">melange</text>
</g>
<!-- lib:melange.js -->
<g id="node11" class="node">
<title>lib:melange.js</title>
<ellipse fill="none" stroke="black" cx="1396.78" cy="-90" rx="61.19" ry="18"/>
<text text-anchor="middle" x="1396.78" y="-86.3" font-family="Times,serif" font-size="14.00">melange.js</text>
</g>
<!-- lib:melange&#45;&gt;lib:melange.js -->
<g id="edge4" class="edge">
<title>lib:melange&#45;&gt;lib:melange.js</title>
<path fill="none" stroke="black" d="M1452.08,-144.76C1442.95,-135.88 1431.46,-124.71 1421.32,-114.85"/>
<polygon fill="black" stroke="black" points="1423.5,-112.09 1413.89,-107.63 1418.62,-117.11 1423.5,-112.09"/>
</g>
<!-- lib:melange.belt -->
<g id="node9" class="node">
<title>lib:melange.belt</title>
<ellipse fill="none" stroke="black" cx="1479.78" cy="-234" rx="71.49" ry="18"/>
<text text-anchor="middle" x="1479.78" y="-230.3" font-family="Times,serif" font-size="14.00">melange.belt</text>
</g>
<!-- lib:melange.belt&#45;&gt;lib:melange -->
<g id="edge5" class="edge">
<title>lib:melange.belt&#45;&gt;lib:melange</title>
<path fill="none" stroke="black" d="M1477.06,-215.7C1475.85,-207.98 1474.4,-198.71 1473.04,-190.11"/>
<polygon fill="black" stroke="black" points="1476.48,-189.44 1471.47,-180.1 1469.57,-190.53 1476.48,-189.44"/>
</g>
<!-- lib:melange.dom -->
<g id="node10" class="node">
<title>lib:melange.dom</title>
<ellipse fill="none" stroke="black" cx="1642.78" cy="-234" rx="73.39" ry="18"/>
<text text-anchor="middle" x="1642.78" y="-230.3" font-family="Times,serif" font-size="14.00">melange.dom</text>
</g>
<!-- lib:melange_mini_stdlib -->
<g id="node16" class="node">
<title>lib:melange_mini_stdlib</title>
<ellipse fill="none" stroke="black" cx="1396.78" cy="-18" rx="105.88" ry="18"/>
<text text-anchor="middle" x="1396.78" y="-14.3" font-family="Times,serif" font-size="14.00">melange_mini_stdlib</text>
</g>
<!-- lib:melange.js&#45;&gt;lib:melange_mini_stdlib -->
<g id="edge6" class="edge">
<title>lib:melange.js&#45;&gt;lib:melange_mini_stdlib</title>
<path fill="none" stroke="black" d="M1396.78,-71.7C1396.78,-63.98 1396.78,-54.71 1396.78,-46.11"/>
<polygon fill="black" stroke="black" points="1400.28,-46.1 1396.78,-36.1 1393.28,-46.1 1400.28,-46.1"/>
</g>
<!-- lib:melange.js_parser -->
<g id="node12" class="node">
<title>lib:melange.js_parser</title>
<ellipse fill="none" stroke="black" cx="1773.78" cy="-306" rx="95.58" ry="18"/>
<text text-anchor="middle" x="1773.78" y="-302.3" font-family="Times,serif" font-size="14.00">melange.js_parser</text>
</g>
<!-- lib:melange.node -->
<g id="node13" class="node">
<title>lib:melange.node</title>
<ellipse fill="none" stroke="black" cx="1325.78" cy="-162" rx="75.29" ry="18"/>
<text text-anchor="middle" x="1325.78" y="-158.3" font-family="Times,serif" font-size="14.00">melange.node</text>
</g>
<!-- lib:melange.node&#45;&gt;lib:melange.js -->
<g id="edge7" class="edge">
<title>lib:melange.node&#45;&gt;lib:melange.js</title>
<path fill="none" stroke="black" d="M1342.61,-144.41C1351.63,-135.52 1362.9,-124.41 1372.82,-114.63"/>
<polygon fill="black" stroke="black" points="1375.41,-116.98 1380.08,-107.47 1370.5,-112 1375.41,-116.98"/>
</g>
<!-- lib:melange_compiler_libs -->
<g id="node14" class="node">
<title>lib:melange_compiler_libs</title>
<ellipse fill="lightgrey" stroke="black" cx="638.78" cy="-90" rx="116.18" ry="18"/>
<text text-anchor="middle" x="638.78" y="-86.3" font-family="Times,serif" font-size="14.00">melange_compiler_libs</text>
</g>
<!-- lib:melange_ffi -->
<g id="node15" class="node">
<title>lib:melange_ffi</title>
<ellipse fill="none" stroke="black" cx="671.78" cy="-234" rx="63.89" ry="18"/>
<text text-anchor="middle" x="671.78" y="-230.3" font-family="Times,serif" font-size="14.00">melange_ffi</text>
</g>
<!-- lib:melange_ffi&#45;&gt;lib:js_parser -->
<g id="edge10" class="edge">
<title>lib:melange_ffi&#45;&gt;lib:js_parser</title>
<path fill="none" stroke="black" d="M666.22,-216.05C663.63,-208.18 660.49,-198.62 657.59,-189.79"/>
<polygon fill="black" stroke="black" points="660.91,-188.68 654.46,-180.28 654.26,-190.87 660.91,-188.68"/>
</g>
<!-- lib:melange_ffi&#45;&gt;lib:melange_compiler_libs -->
<g id="edge9" class="edge">
<title>lib:melange_ffi&#45;&gt;lib:melange_compiler_libs</title>
<path fill="none" stroke="black" d="M688.11,-216.34C703.75,-198.27 723.27,-168.69 710.78,-144 704.36,-131.29 693.29,-120.89 681.74,-112.77"/>
<polygon fill="black" stroke="black" points="683.58,-109.79 673.3,-107.25 679.76,-115.65 683.58,-109.79"/>
</g>
<!-- lib:melstd -->
<g id="node20" class="node">
<title>lib:melstd</title>
<ellipse fill="none" stroke="black" cx="799.78" cy="-162" rx="42.49" ry="18"/>
<text text-anchor="middle" x="799.78" y="-158.3" font-family="Times,serif" font-size="14.00">melstd</text>
</g>
<!-- lib:melange_ffi&#45;&gt;lib:melstd -->
<g id="edge8" class="edge">
<title>lib:melange_ffi&#45;&gt;lib:melstd</title>
<path fill="none" stroke="black" d="M699.87,-217.64C719.27,-207.03 745.18,-192.86 765.76,-181.61"/>
<polygon fill="black" stroke="black" points="767.7,-184.54 774.79,-176.67 764.34,-178.4 767.7,-184.54"/>
</g>
<!-- lib:melange_runtime_es6_tests -->
<g id="node17" class="node">
<title>lib:melange_runtime_es6_tests</title>
<ellipse fill="none" stroke="black" cx="1264.78" cy="-306" rx="139.98" ry="18"/>
<text text-anchor="middle" x="1264.78" y="-302.3" font-family="Times,serif" font-size="14.00">melange_runtime_es6_tests</text>
</g>
<!-- lib:test_runner -->
<g id="node23" class="node">
<title>lib:test_runner</title>
<ellipse fill="none" stroke="black" cx="1325.78" cy="-234" rx="64.99" ry="18"/>
<text text-anchor="middle" x="1325.78" y="-230.3" font-family="Times,serif" font-size="14.00">test_runner</text>
</g>
<!-- lib:melange_runtime_es6_tests&#45;&gt;lib:test_runner -->
<g id="edge11" class="edge">
<title>lib:melange_runtime_es6_tests&#45;&gt;lib:test_runner</title>
<path fill="none" stroke="black" d="M1279.55,-288.05C1287.04,-279.46 1296.28,-268.86 1304.52,-259.4"/>
<polygon fill="black" stroke="black" points="1307.22,-261.63 1311.15,-251.79 1301.95,-257.03 1307.22,-261.63"/>
</g>
<!-- lib:melange_runtime_tests -->
<g id="node18" class="node">
<title>lib:melange_runtime_tests</title>
<ellipse fill="none" stroke="black" cx="1541.78" cy="-306" rx="118.88" ry="18"/>
<text text-anchor="middle" x="1541.78" y="-302.3" font-family="Times,serif" font-size="14.00">melange_runtime_tests</text>
</g>
<!-- lib:melange_runtime_tests&#45;&gt;lib:melange.belt -->
<g id="edge14" class="edge">
<title>lib:melange_runtime_tests&#45;&gt;lib:melange.belt</title>
<path fill="none" stroke="black" d="M1526.78,-288.05C1519.16,-279.46 1509.77,-268.86 1501.39,-259.4"/>
<polygon fill="black" stroke="black" points="1503.9,-256.95 1494.65,-251.79 1498.66,-261.6 1503.9,-256.95"/>
</g>
<!-- lib:melange_runtime_tests&#45;&gt;lib:melange.dom -->
<g id="edge13" class="edge">
<title>lib:melange_runtime_tests&#45;&gt;lib:melange.dom</title>
<path fill="none" stroke="black" d="M1565.98,-288.23C1579.54,-278.83 1596.61,-267 1611.22,-256.88"/>
<polygon fill="black" stroke="black" points="1613.26,-259.72 1619.48,-251.15 1609.27,-253.97 1613.26,-259.72"/>
</g>
<!-- lib:melange_runtime_tests&#45;&gt;lib:test_runner -->
<g id="edge12" class="edge">
<title>lib:melange_runtime_tests&#45;&gt;lib:test_runner</title>
<path fill="none" stroke="black" d="M1493.85,-289.46C1458.86,-278.13 1411.53,-262.79 1376.02,-251.28"/>
<polygon fill="black" stroke="black" points="1376.92,-247.89 1366.33,-248.14 1374.77,-254.55 1376.92,-247.89"/>
</g>
<!-- lib:melangelib -->
<g id="node19" class="node">
<title>lib:melangelib</title>
<ellipse fill="none" stroke="black" cx="567.78" cy="-306" rx="61.99" ry="18"/>
<text text-anchor="middle" x="567.78" y="-302.3" font-family="Times,serif" font-size="14.00">melangelib</text>
</g>
<!-- lib:melangelib&#45;&gt;lib:dune&#45;build&#45;info -->
<g id="edge19" class="edge">
<title>lib:melangelib&#45;&gt;lib:dune&#45;build&#45;info</title>
<path fill="none" stroke="black" d="M543.32,-289.29C528.39,-279.7 509.08,-267.3 492.68,-256.77"/>
<polygon fill="black" stroke="black" points="494.23,-253.6 483.92,-251.14 490.44,-259.49 494.23,-253.6"/>
</g>
<!-- lib:melangelib&#45;&gt;lib:melange_compiler_libs -->
<g id="edge16" class="edge">
<title>lib:melangelib&#45;&gt;lib:melange_compiler_libs</title>
<path fill="none" stroke="black" d="M566.29,-287.55C564.4,-256.87 563.81,-191.98 586.78,-144 592.04,-133.03 600.48,-122.95 609.05,-114.59"/>
<polygon fill="black" stroke="black" points="611.55,-117.05 616.54,-107.7 606.81,-111.89 611.55,-117.05"/>
</g>
<!-- lib:melangelib&#45;&gt;lib:melange_ffi -->
<g id="edge17" class="edge">
<title>lib:melangelib&#45;&gt;lib:melange_ffi</title>
<path fill="none" stroke="black" d="M591.12,-289.29C605.47,-279.63 624.06,-267.12 639.77,-256.55"/>
<polygon fill="black" stroke="black" points="641.82,-259.39 648.16,-250.9 637.91,-253.58 641.82,-259.39"/>
</g>
<!-- lib:melangelib&#45;&gt;lib:melstd -->
<g id="edge15" class="edge">
<title>lib:melangelib&#45;&gt;lib:melstd</title>
<path fill="none" stroke="black" d="M612.36,-293.42C661.21,-280.46 734.09,-260.2 744.78,-252 765.75,-235.93 780.64,-209.39 789.6,-189.47"/>
<polygon fill="black" stroke="black" points="792.92,-190.59 793.63,-180.02 786.49,-187.85 792.92,-190.59"/>
</g>
<!-- lib:melangelib&#45;&gt;lib:ppxlib.ast -->
<g id="edge18" class="edge">
<title>lib:melangelib&#45;&gt;lib:ppxlib.ast</title>
<path fill="none" stroke="black" d="M523.6,-293.28C477.32,-281.01 404.68,-261.75 355.7,-248.77"/>
<polygon fill="black" stroke="black" points="356.49,-245.36 345.93,-246.18 354.7,-252.12 356.49,-245.36"/>
</g>
<!-- lib:melstd&#45;&gt;lib:melange_compiler_libs -->
<g id="edge21" class="edge">
<title>lib:melstd&#45;&gt;lib:melange_compiler_libs</title>
<path fill="none" stroke="black" d="M771.37,-148.65C747.63,-138.32 713.3,-123.4 685.52,-111.32"/>
<polygon fill="black" stroke="black" points="686.56,-107.95 675.99,-107.18 683.77,-114.37 686.56,-107.95"/>
</g>
<!-- lib:pp -->
<g id="node21" class="node">
<title>lib:pp</title>
<ellipse fill="lightgrey" stroke="black" cx="799.78" cy="-90" rx="27" ry="18"/>
<text text-anchor="middle" x="799.78" y="-86.3" font-family="Times,serif" font-size="14.00">pp</text>
</g>
<!-- lib:melstd&#45;&gt;lib:pp -->
<g id="edge22" class="edge">
<title>lib:melstd&#45;&gt;lib:pp</title>
<path fill="none" stroke="black" d="M799.78,-143.7C799.78,-135.98 799.78,-126.71 799.78,-118.11"/>
<polygon fill="black" stroke="black" points="803.28,-118.1 799.78,-108.1 796.28,-118.1 803.28,-118.1"/>
</g>
<!-- lib:unix -->
<g id="node24" class="node">
<title>lib:unix</title>
<ellipse fill="lightgrey" stroke="black" cx="875.78" cy="-90" rx="30.59" ry="18"/>
<text text-anchor="middle" x="875.78" y="-86.3" font-family="Times,serif" font-size="14.00">unix</text>
</g>
<!-- lib:melstd&#45;&gt;lib:unix -->
<g id="edge20" class="edge">
<title>lib:melstd&#45;&gt;lib:unix</title>
<path fill="none" stroke="black" d="M816.65,-145.46C827.17,-135.78 840.85,-123.17 852.41,-112.53"/>
<polygon fill="black" stroke="black" points="855.02,-114.89 860,-105.54 850.28,-109.74 855.02,-114.89"/>
</g>
<!-- lib:test_runner&#45;&gt;lib:melange -->
<g id="edge23" class="edge">
<title>lib:test_runner&#45;&gt;lib:melange</title>
<path fill="none" stroke="black" d="M1356.46,-217.98C1378.24,-207.32 1407.63,-192.94 1430.88,-181.55"/>
<polygon fill="black" stroke="black" points="1432.66,-184.58 1440.1,-177.04 1429.58,-178.29 1432.66,-184.58"/>
</g>
<!-- lib:test_runner&#45;&gt;lib:melange.node -->
<g id="edge24" class="edge">
<title>lib:test_runner&#45;&gt;lib:melange.node</title>
<path fill="none" stroke="black" d="M1325.78,-215.7C1325.78,-207.98 1325.78,-198.71 1325.78,-190.11"/>
<polygon fill="black" stroke="black" points="1329.28,-190.1 1325.78,-180.1 1322.28,-190.1 1329.28,-190.1"/>
</g>
</g>
</svg>
